<?xml version="1.0" standalone="no"?><!DOCTYPE svg PUBLIC "-//W3C//DTD SVG 1.1//EN" "http://www.w3.org/Graphics/SVG/1.1/DTD/svg11.dtd"><svg width="100%" height="100%" viewBox="0 0 200 200" version="1.1" xmlns="http://www.w3.org/2000/svg" xmlns:xlink="http://www.w3.org/1999/xlink" xml:space="preserve" style="fill-rule:evenodd;clip-rule:evenodd;stroke-linejoin:round;stroke-miterlimit:1.41421;"><path d="M100.959,58.423c23.589,0 42.741,19.152 42.741,42.742c0,23.589 -19.152,42.741 -42.741,42.741c-23.59,0 -42.741,-19.152 -42.741,-42.741c0,-23.59 19.151,-42.742 42.741,-42.742ZM100.959,81.588c10.804,0 19.576,8.772 19.576,19.577c0,10.804 -8.772,19.576 -19.576,19.576c-10.805,0 -19.576,-8.772 -19.576,-19.576c0,-10.805 8.771,-19.577 19.576,-19.577Z" style="fill:#000;"/><path d="M101.817,5.635l0.57,0.005l0.571,0.009l0.571,0.011l0.571,0.015l0.572,0.018l0.573,0.021l0.572,0.024l0.574,0.028l0.573,0.03l0.574,0.034l0.574,0.037l0.575,0.041l0.574,0.044l0.575,0.047l0.576,0.05l0.575,0.054l0.576,0.057l0.576,0.06l0.577,0.064l0.576,0.067l0.577,0.071l0.577,0.074l0.577,0.077l0.577,0.081l0.577,0.084l0.578,0.088l0.577,0.092l0.577,0.095l0.578,0.098l0.567,0.1l0.299,0.054l0.289,0.053l0.289,0.054l0.289,0.055l0.288,0.056l0.289,0.057l0.289,0.058l0.288,0.058l0.289,0.06l0.289,0.06l0.288,0.061l0.289,0.062l0.289,0.063l0.288,0.064l0.289,0.065l0.288,0.066l0.289,0.067l0.288,0.067l0.288,0.069l0.289,0.069l0.288,0.071l0.288,0.071l0.289,0.072l0.288,0.074l0.288,0.074l0.288,0.075l0.288,0.076l0.288,0.077l0.287,0.078l0.288,0.078l0.288,0.08l0.288,0.081l0.287,0.081l0.287,0.083l0.288,0.083l0.287,0.085l0.287,0.085l0.288,0.087l0.287,0.087l0.286,0.088l0.287,0.089l0.287,0.091l0.287,0.091l0.286,0.092l0.287,0.093l0.286,0.094l0.286,0.095l0.286,0.096l0.286,0.097l0.286,0.098l0.286,0.099l0.286,0.099l0.285,0.101l0.285,0.102l0.286,0.103l0.285,0.103l0.285,0.105l0.285,0.106l0.284,0.107l0.285,0.107l0.284,0.109l0.284,0.11l0.284,0.11l0.284,0.112l0.284,0.112l0.284,0.114l0.283,0.115l0.283,0.115l0.283,0.117l0.283,0.117l0.283,0.119l0.283,0.12l0.282,0.12l0.282,0.122l0.282,0.123l0.282,0.123l0.281,0.125l0.282,0.125l0.281,0.127l0.281,0.128l0.281,0.128l0.281,0.13l0.28,0.131l0.28,0.131l0.28,0.133l0.28,0.134l0.28,0.135l0.279,0.136l0.279,0.136l0.279,0.138l0.278,0.139l0.279,0.14l0.278,0.141l0.278,0.142l0.278,0.143l0.277,0.144l0.277,0.145l0.277,0.146l0.277,0.147l0.276,0.148l0.276,0.149l0.276,0.151l0.276,0.151l0.275,0.152l0.275,0.153l0.275,0.155l0.275,0.155l0.274,0.157l0.274,0.157l0.274,0.159l0.273,0.159l0.273,0.161l0.273,0.162l0.273,0.162l0.272,0.164l0.272,0.165l0.271,0.166l0.272,0.167l0.271,0.168l0.27,0.169l0.271,0.17l0.27,0.171l0.269,0.172l0.27,0.174l0.269,0.174l0.269,0.175l0.268,0.177l0.268,0.177l0.268,0.179l0.267,0.179l0.267,0.181l0.267,0.182l0.266,0.183l0.267,0.184l0.265,0.185l0.265,0.185l0.265,0.188l0.265,0.188l0.264,0.189l0.264,0.19l0.264,0.192l0.263,0.192l0.262,0.193l0.263,0.195l0.262,0.195l0.261,0.197l0.261,0.198l0.261,0.199l0.261,0.2l0.26,0.201l0.259,0.202l0.259,0.203l0.259,0.204l0.259,0.205l0.258,0.207l0.257,0.207l0.257,0.208l0.257,0.21l0.257,0.211l0.255,0.211l0.256,0.213l0.255,0.214l0.255,0.215l0.254,0.216l0.254,0.217l0.253,0.218l0.253,0.22l0.252,0.22l0.252,0.222l0.252,0.222l0.251,0.224l0.251,0.225l0.25,0.225l0.25,0.227l0.249,0.228l0.232,0.213l-18.962,20.603l-0.198,-0.183l-0.181,-0.165l-0.182,-0.165l-0.182,-0.165l-0.182,-0.163l-0.182,-0.162l-0.183,-0.161l-0.182,-0.161l-0.183,-0.159l-0.183,-0.159l-0.183,-0.158l-0.184,-0.157l-0.184,-0.156l-0.183,-0.155l-0.184,-0.155l-0.185,-0.153l-0.184,-0.153l-0.185,-0.152l-0.185,-0.15l-0.185,-0.15l-0.185,-0.15l-0.186,-0.148l-0.185,-0.148l-0.186,-0.146l-0.186,-0.146l-0.186,-0.145l-0.187,-0.144l-0.186,-0.143l-0.187,-0.143l-0.187,-0.141l-0.187,-0.141l-0.188,-0.14l-0.187,-0.139l-0.188,-0.138l-0.188,-0.138l-0.188,-0.136l-0.188,-0.136l-0.189,-0.135l-0.189,-0.134l-0.188,-0.133l-0.189,-0.133l-0.19,-0.132l-0.189,-0.13l-0.189,-0.131l-0.19,-0.129l-0.19,-0.128l-0.19,-0.128l-0.19,-0.127l-0.191,-0.126l-0.19,-0.125l-0.191,-0.125l-0.191,-0.123l-0.191,-0.123l-0.191,-0.122l-0.192,-0.122l-0.191,-0.12l-0.192,-0.12l-0.192,-0.119l-0.192,-0.118l-0.193,-0.118l-0.192,-0.116l-0.193,-0.116l-0.192,-0.115l-0.193,-0.115l-0.194,-0.113l-0.193,-0.113l-0.193,-0.112l-0.194,-0.111l-0.194,-0.111l-0.193,-0.11l-0.194,-0.109l-0.195,-0.108l-0.194,-0.108l-0.195,-0.106l-0.194,-0.106l-0.195,-0.106l-0.195,-0.104l-0.195,-0.104l-0.196,-0.103l-0.195,-0.102l-0.196,-0.102l-0.195,-0.1l-0.197,-0.101l-0.196,-0.099l-0.196,-0.098l-0.196,-0.098l-0.197,-0.098l-0.196,-0.096l-0.197,-0.096l-0.197,-0.095l-0.197,-0.094l-0.197,-0.093l-0.198,-0.093l-0.197,-0.092l-0.198,-0.092l-0.198,-0.09l-0.198,-0.09l-0.198,-0.089l-0.198,-0.089l-0.199,-0.088l-0.198,-0.087l-0.199,-0.086l-0.199,-0.086l-0.199,-0.085l-0.199,-0.084l-0.199,-0.084l-0.199,-0.083l-0.2,-0.082l-0.2,-0.081l-0.199,-0.081l-0.2,-0.08l-0.2,-0.079l-0.2,-0.079l-0.201,-0.078l-0.2,-0.077l-0.201,-0.077l-0.2,-0.076l-0.201,-0.075l-0.201,-0.075l-0.201,-0.074l-0.201,-0.073l-0.201,-0.072l-0.202,-0.072l-0.201,-0.072l-0.202,-0.07l-0.202,-0.07l-0.202,-0.069l-0.202,-0.068l-0.202,-0.068l-0.202,-0.067l-0.203,-0.067l-0.202,-0.066l-0.203,-0.065l-0.203,-0.064l-0.202,-0.064l-0.203,-0.063l-0.203,-0.063l-0.204,-0.061l-0.203,-0.062l-0.203,-0.06l-0.204,-0.06l-0.203,-0.059l-0.204,-0.058l-0.204,-0.058l-0.204,-0.058l-0.204,-0.056l-0.204,-0.056l-0.204,-0.055l-0.205,-0.055l-0.204,-0.054l-0.205,-0.053l-0.204,-0.053l-0.205,-0.052l-0.205,-0.051l-0.205,-0.051l-0.205,-0.05l-0.205,-0.049l-0.205,-0.049l-0.205,-0.048l-0.206,-0.048l-0.205,-0.047l-0.206,-0.046l-0.205,-0.045l-0.206,-0.045l-0.206,-0.045l-0.206,-0.043l-0.206,-0.043l-0.206,-0.043l-0.206,-0.042l-0.206,-0.041l-0.206,-0.04l-0.207,-0.04l-0.206,-0.04l-0.207,-0.038l-0.206,-0.038l-0.197,-0.036l-0.424,-0.075l-0.413,-0.07l-0.414,-0.068l-0.415,-0.066l-0.414,-0.063l-0.415,-0.06l-0.415,-0.059l-0.415,-0.055l-0.416,-0.054l-0.415,-0.05l-0.416,-0.049l-0.416,-0.046l-0.416,-0.044l-0.416,-0.041l-0.417,-0.039l-0.416,-0.036l-0.417,-0.034l-0.417,-0.032l-0.417,-0.029l-0.416,-0.027l-0.417,-0.025l-0.417,-0.022l-0.418,-0.02l-0.417,-0.018l-0.417,-0.015l-0.417,-0.013l-0.417,-0.011l-0.417,-0.008l-0.417,-0.007l-0.417,-0.003l-0.417,-0.002l-0.417,0.001l-0.417,0.003l-0.417,0.005l-0.416,0.007l-0.417,0.01l-0.416,0.012l-0.416,0.014l-0.416,0.017l-0.416,0.018l-0.416,0.021l-0.415,0.023l-0.415,0.025l-0.415,0.028l-0.415,0.029l-0.414,0.032l-0.415,0.034l-0.414,0.036l-0.413,0.038l-0.413,0.04l-0.413,0.042l-0.413,0.045l-0.412,0.047l-0.412,0.048l-0.412,0.051l-0.411,0.053l-0.41,0.055l-0.41,0.057l-0.41,0.059l-0.409,0.061l-0.409,0.063l-0.409,0.066l-0.407,0.067l-0.408,0.069l-0.406,0.071l-0.406,0.074l-0.406,0.075l-0.405,0.077l-0.404,0.079l-0.404,0.081l-0.403,0.084l-0.403,0.085l-0.401,0.087l-0.402,0.088l-0.4,0.091l-0.4,0.093l-0.399,0.095l-0.398,0.096l-0.397,0.098l-0.397,0.101l-0.396,0.102l-0.395,0.104l-0.394,0.105l-0.394,0.108l-0.392,0.109l-0.392,0.112l-0.391,0.113l-0.39,0.114l-0.389,0.117l-0.388,0.118l-0.387,0.12l-0.386,0.122l-0.385,0.123l-0.384,0.126l-0.383,0.127l-0.382,0.128l-0.381,0.131l-0.38,0.132l-0.379,0.133l-0.378,0.136l-0.376,0.137l-0.376,0.138l-0.374,0.14l-0.373,0.142l-0.372,0.144l-0.371,0.145l-0.37,0.146l-0.368,0.148l-0.367,0.15l-0.366,0.151l-0.365,0.153l-0.363,0.154l-0.362,0.156l-0.361,0.157l-0.359,0.159l-0.358,0.16l-0.357,0.161l-0.355,0.163l-0.353,0.165l-0.353,0.166l-0.351,0.167l-0.349,0.168l-0.348,0.17l-0.347,0.172l-0.345,0.173l-0.343,0.174l-0.342,0.175l-0.083,0.043l0.752,0.827l1.654,1.818l1.696,1.863l3.465,3.801l3.466,3.801l3.359,3.681l3.143,3.442l2.816,3.083l4.217,4.614l1.6,1.75l-20.663,18.895l-1.603,-1.752l-4.222,-4.62l-2.82,-3.088l-3.148,-3.447l-3.364,-3.687l-3.474,-3.808l-3.472,-3.81l-1.702,-1.87l-1.661,-1.825l-1.607,-1.767l-1.538,-1.694l-1.457,-1.605l-1.363,-1.503l-1.254,-1.387l-1.134,-1.256l-0.999,-1.11l-0.45,-0.501l-0.411,-0.46l-0.375,-0.419l-0.337,-0.38l-0.302,-0.343l-0.274,-0.312l-0.243,-0.282l-0.145,-0.171l-0.155,-0.185l-0.21,-0.259l-0.376,-0.487l-0.788,-1.148l-1.219,-2.442l-1.213,-5.584l2.616,-7.462l3.415,-2.784l0.387,-0.311l0.389,-0.311l0.391,-0.308l0.393,-0.306l0.395,-0.305l0.398,-0.303l0.399,-0.301l0.402,-0.3l0.404,-0.297l0.405,-0.296l0.408,-0.294l0.41,-0.293l0.412,-0.29l0.414,-0.289l0.415,-0.286l0.418,-0.285l0.42,-0.284l0.422,-0.281l0.423,-0.28l0.426,-0.277l0.427,-0.276l0.429,-0.274l0.432,-0.272l0.433,-0.27l0.435,-0.269l0.436,-0.266l0.439,-0.265l0.44,-0.263l0.443,-0.26l0.444,-0.259l0.446,-0.257l0.447,-0.255l0.45,-0.254l0.451,-0.251l0.453,-0.249l0.454,-0.247l0.457,-0.246l0.458,-0.243l0.46,-0.242l0.461,-0.239l0.463,-0.238l0.465,-0.235l0.466,-0.234l0.469,-0.231l0.469,-0.23l0.472,-0.227l0.473,-0.226l0.474,-0.223l0.476,-0.221l0.478,-0.219l0.479,-0.218l0.481,-0.215l0.482,-0.213l0.484,-0.211l0.486,-0.208l0.487,-0.207l0.488,-0.205l0.49,-0.202l0.491,-0.201l0.493,-0.198l0.494,-0.196l0.496,-0.193l0.497,-0.192l0.499,-0.19l0.5,-0.187l0.501,-0.185l0.503,-0.183l0.504,-0.18l0.505,-0.178l0.507,-0.177l0.508,-0.173l0.51,-0.172l0.51,-0.169l0.512,-0.167l0.514,-0.165l0.514,-0.162l0.516,-0.16l0.517,-0.158l0.519,-0.155l0.519,-0.153l0.521,-0.151l0.522,-0.148l0.524,-0.146l0.524,-0.143l0.526,-0.141l0.526,-0.139l0.528,-0.136l0.529,-0.133l0.53,-0.132l0.532,-0.128l0.532,-0.126l0.534,-0.124l0.534,-0.121l0.536,-0.119l0.536,-0.116l0.538,-0.114l0.539,-0.111l0.54,-0.108l0.541,-0.106l0.541,-0.104l0.543,-0.1l0.544,-0.098l0.544,-0.096l0.546,-0.093l0.547,-0.09l0.547,-0.087l0.549,-0.085l0.549,-0.082l0.55,-0.079l0.551,-0.077l0.552,-0.074l0.553,-0.071l0.553,-0.068l0.555,-0.066l0.555,-0.063l0.556,-0.06l0.557,-0.057l0.557,-0.054l0.559,-0.052l0.559,-0.048l0.56,-0.046l0.56,-0.043l0.561,-0.04l0.562,-0.037l0.563,-0.034l0.563,-0.031l0.564,-0.028l0.564,-0.026l0.566,-0.022l0.565,-0.019l0.567,-0.016l0.567,-0.014l0.567,-0.01l0.568,-0.007l0.569,-0.004l0.569,-0.001l0.569,0.002Z" style="fill:#000;"/><path d="M133.332,112.552l4.222,4.62l2.821,3.088l3.147,3.446l3.365,3.688l3.473,3.808l3.472,3.81l1.702,1.87l1.661,1.825l1.607,1.767l1.539,1.694l1.457,1.605l1.362,1.503l1.254,1.387l1.135,1.256l0.999,1.11l0.45,0.501l0.411,0.46l0.374,0.419l0.337,0.38l0.303,0.342l0.273,0.313l0.243,0.282l0.145,0.171l0.156,0.186l0.209,0.258l0.376,0.487l0.789,1.149l1.214,2.434l1.215,5.555l-2.593,7.481l-3.435,2.801l-0.387,0.311l-0.389,0.311l-0.391,0.308l-0.394,0.306l-0.395,0.305l-0.398,0.303l-0.399,0.301l-0.402,0.3l-0.403,0.297l-0.406,0.296l-0.408,0.294l-0.41,0.293l-0.411,0.29l-0.414,0.289l-0.416,0.286l-0.418,0.285l-0.419,0.284l-0.422,0.281l-0.424,0.279l-0.425,0.278l-0.428,0.276l-0.429,0.274l-0.431,0.272l-0.433,0.27l-0.435,0.269l-0.437,0.266l-0.439,0.265l-0.44,0.262l-0.442,0.261l-0.445,0.259l-0.445,0.257l-0.448,0.255l-0.449,0.254l-0.452,0.251l-0.452,0.249l-0.455,0.247l-0.456,0.246l-0.459,0.243l-0.459,0.242l-0.462,0.239l-0.463,0.238l-0.465,0.235l-0.466,0.234l-0.468,0.231l-0.47,0.23l-0.471,0.227l-0.473,0.225l-0.475,0.224l-0.476,0.221l-0.478,0.219l-0.479,0.218l-0.481,0.215l-0.482,0.213l-0.484,0.211l-0.485,0.208l-0.487,0.207l-0.489,0.205l-0.49,0.202l-0.491,0.2l-0.493,0.199l-0.494,0.196l-0.496,0.193l-0.497,0.192l-0.498,0.189l-0.5,0.188l-0.502,0.185l-0.503,0.183l-0.504,0.18l-0.505,0.178l-0.507,0.176l-0.508,0.174l-0.509,0.172l-0.511,0.169l-0.512,0.167l-0.513,0.165l-0.515,0.162l-0.516,0.16l-0.517,0.158l-0.519,0.155l-0.519,0.153l-0.521,0.151l-0.522,0.148l-0.523,0.146l-0.525,0.143l-0.525,0.141l-0.527,0.139l-0.528,0.136l-0.529,0.133l-0.53,0.131l-0.531,0.129l-0.533,0.126l-0.533,0.124l-0.535,0.121l-0.535,0.119l-0.537,0.116l-0.538,0.114l-0.539,0.111l-0.539,0.108l-0.541,0.106l-0.542,0.104l-0.543,0.1l-0.543,0.098l-0.545,0.096l-0.546,0.093l-0.546,0.09l-0.548,0.087l-0.548,0.085l-0.549,0.082l-0.551,0.079l-0.551,0.077l-0.552,0.074l-0.552,0.071l-0.554,0.068l-0.554,0.066l-0.556,0.063l-0.556,0.06l-0.557,0.057l-0.557,0.054l-0.558,0.052l-0.559,0.048l-0.56,0.046l-0.561,0.043l-0.561,0.04l-0.562,0.037l-0.562,0.034l-0.564,0.031l-0.564,0.028l-0.564,0.026l-0.565,0.022l-0.566,0.019l-0.566,0.016l-0.567,0.014l-0.568,0.01l-0.568,0.007l-0.568,0.004l-0.569,0.001l-0.57,-0.002l-0.57,-0.005l-0.571,-0.009l-0.571,-0.011l-0.571,-0.015l-0.572,-0.018l-0.572,-0.021l-0.573,-0.024l-0.573,-0.028l-0.574,-0.03l-0.574,-0.034l-0.574,-0.037l-0.574,-0.041l-0.575,-0.044l-0.575,-0.047l-0.576,-0.05l-0.575,-0.054l-0.576,-0.057l-0.576,-0.06l-0.577,-0.064l-0.576,-0.067l-0.577,-0.071l-0.577,-0.074l-0.577,-0.077l-0.577,-0.081l-0.577,-0.085l-0.577,-0.087l-0.578,-0.092l-0.577,-0.095l-0.578,-0.098l-0.567,-0.1l-0.299,-0.054l-0.289,-0.053l-0.289,-0.054l-0.288,-0.055l-0.289,-0.056l-0.289,-0.057l-0.288,-0.058l-0.289,-0.058l-0.289,-0.06l-0.288,-0.06l-0.289,-0.061l-0.289,-0.062l-0.288,-0.063l-0.289,-0.064l-0.288,-0.065l-0.289,-0.066l-0.288,-0.067l-0.289,-0.067l-0.288,-0.069l-0.289,-0.07l-0.288,-0.07l-0.288,-0.071l-0.288,-0.073l-0.288,-0.073l-0.288,-0.074l-0.288,-0.075l-0.288,-0.076l-0.288,-0.077l-0.288,-0.078l-0.288,-0.078l-0.287,-0.08l-0.288,-0.081l-0.288,-0.082l-0.287,-0.082l-0.287,-0.083l-0.288,-0.085l-0.287,-0.085l-0.287,-0.087l-0.287,-0.087l-0.287,-0.088l-0.287,-0.09l-0.287,-0.09l-0.286,-0.091l-0.287,-0.092l-0.286,-0.093l-0.287,-0.094l-0.286,-0.095l-0.286,-0.096l-0.286,-0.097l-0.286,-0.098l-0.286,-0.099l-0.285,-0.099l-0.286,-0.101l-0.285,-0.102l-0.285,-0.103l-0.285,-0.103l-0.286,-0.105l-0.284,-0.106l-0.285,-0.107l-0.284,-0.107l-0.285,-0.109l-0.284,-0.11l-0.284,-0.11l-0.284,-0.112l-0.284,-0.112l-0.283,-0.114l-0.284,-0.115l-0.283,-0.115l-0.283,-0.117l-0.283,-0.118l-0.283,-0.118l-0.282,-0.12l-0.283,-0.12l-0.282,-0.122l-0.282,-0.123l-0.282,-0.123l-0.281,-0.125l-0.282,-0.125l-0.281,-0.127l-0.281,-0.128l-0.281,-0.128l-0.28,-0.13l-0.281,-0.131l-0.28,-0.132l-0.28,-0.132l-0.28,-0.134l-0.279,-0.135l-0.279,-0.136l-0.28,-0.136l-0.279,-0.138l-0.278,-0.139l-0.279,-0.14l-0.277,-0.141l-0.279,-0.142l-0.277,-0.143l-0.278,-0.144l-0.277,-0.145l-0.277,-0.146l-0.277,-0.147l-0.276,-0.148l-0.276,-0.149l-0.276,-0.151l-0.276,-0.151l-0.275,-0.152l-0.275,-0.154l-0.275,-0.154l-0.274,-0.155l-0.275,-0.157l-0.273,-0.157l-0.274,-0.159l-0.274,-0.16l-0.273,-0.16l-0.273,-0.162l-0.272,-0.163l-0.272,-0.163l-0.272,-0.165l-0.272,-0.166l-0.271,-0.167l-0.271,-0.168l-0.271,-0.169l-0.27,-0.17l-0.27,-0.171l-0.27,-0.172l-0.27,-0.174l-0.269,-0.174l-0.268,-0.175l-0.269,-0.177l-0.268,-0.177l-0.268,-0.179l-0.267,-0.18l-0.267,-0.18l-0.267,-0.182l-0.266,-0.183l-0.266,-0.184l-0.266,-0.185l-0.265,-0.186l-0.265,-0.187l-0.265,-0.188l-0.264,-0.189l-0.264,-0.19l-0.263,-0.192l-0.263,-0.192l-0.263,-0.193l-0.262,-0.195l-0.262,-0.196l-0.262,-0.196l-0.261,-0.198l-0.261,-0.199l-0.26,-0.2l-0.26,-0.201l-0.26,-0.202l-0.259,-0.203l-0.259,-0.204l-0.258,-0.205l-0.258,-0.207l-0.258,-0.207l-0.257,-0.209l-0.257,-0.209l-0.256,-0.211l-0.256,-0.211l-0.256,-0.213l-0.255,-0.214l-0.254,-0.215l-0.255,-0.216l-0.253,-0.217l-0.254,-0.219l-0.253,-0.219l-0.252,-0.22l-0.252,-0.222l-0.252,-0.222l-0.251,-0.224l-0.25,-0.224l-0.251,-0.226l-0.249,-0.227l-0.25,-0.228l-0.232,-0.214l18.962,-20.602l0.198,0.183l0.182,0.165l0.181,0.165l0.182,0.164l0.182,0.164l0.182,0.162l0.183,0.161l0.182,0.161l0.183,0.159l0.183,0.159l0.184,0.158l0.183,0.157l0.184,0.156l0.184,0.155l0.184,0.155l0.184,0.153l0.185,0.153l0.184,0.152l0.185,0.15l0.185,0.151l0.186,0.149l0.185,0.148l0.186,0.148l0.185,0.146l0.186,0.146l0.187,0.145l0.186,0.144l0.187,0.143l0.187,0.143l0.187,0.141l0.187,0.141l0.187,0.14l0.188,0.139l0.187,0.138l0.188,0.138l0.188,0.136l0.189,0.136l0.188,0.135l0.189,0.134l0.189,0.133l0.189,0.133l0.189,0.132l0.189,0.13l0.19,0.131l0.189,0.129l0.19,0.128l0.19,0.128l0.191,0.127l0.19,0.126l0.191,0.125l0.19,0.125l0.191,0.123l0.191,0.123l0.192,0.122l0.191,0.122l0.192,0.12l0.192,0.12l0.191,0.119l0.193,0.118l0.192,0.118l0.192,0.116l0.193,0.116l0.193,0.115l0.193,0.115l0.193,0.113l0.193,0.113l0.193,0.112l0.194,0.111l0.194,0.111l0.194,0.11l0.194,0.109l0.194,0.108l0.194,0.107l0.195,0.107l0.194,0.106l0.196,0.105l0.195,0.105l0.195,0.104l0.195,0.103l0.195,0.102l0.196,0.102l0.196,0.1l0.196,0.1l0.196,0.1l0.196,0.098l0.196,0.098l0.197,0.097l0.197,0.097l0.197,0.096l0.196,0.095l0.198,0.094l0.197,0.093l0.197,0.093l0.198,0.092l0.197,0.092l0.198,0.09l0.198,0.09l0.198,0.089l0.199,0.089l0.198,0.088l0.198,0.087l0.199,0.086l0.199,0.086l0.199,0.085l0.199,0.084l0.199,0.084l0.2,0.082l0.199,0.083l0.2,0.081l0.2,0.081l0.199,0.08l0.2,0.079l0.201,0.079l0.2,0.078l0.2,0.077l0.201,0.077l0.2,0.076l0.201,0.075l0.201,0.075l0.201,0.074l0.201,0.073l0.202,0.072l0.201,0.072l0.202,0.071l0.201,0.071l0.202,0.07l0.202,0.069l0.202,0.068l0.202,0.068l0.203,0.067l0.202,0.067l0.203,0.066l0.202,0.065l0.203,0.064l0.203,0.064l0.203,0.063l0.203,0.063l0.203,0.061l0.203,0.061l0.204,0.061l0.203,0.06l0.204,0.059l0.204,0.058l0.203,0.058l0.204,0.057l0.204,0.057l0.204,0.056l0.205,0.055l0.204,0.055l0.204,0.054l0.205,0.053l0.204,0.053l0.205,0.052l0.205,0.051l0.205,0.051l0.205,0.05l0.205,0.049l0.205,0.049l0.205,0.048l0.206,0.048l0.206,0.047l0.205,0.046l0.206,0.045l0.205,0.045l0.206,0.045l0.206,0.043l0.206,0.043l0.206,0.043l0.206,0.042l0.207,0.041l0.205,0.04l0.207,0.04l0.207,0.04l0.206,0.038l0.207,0.038l0.196,0.036l0.424,0.075l0.414,0.07l0.414,0.068l0.414,0.066l0.415,0.063l0.414,0.06l0.415,0.058l0.416,0.056l0.415,0.054l0.415,0.05l0.416,0.049l0.416,0.046l0.416,0.044l0.417,0.041l0.416,0.039l0.417,0.036l0.416,0.034l0.417,0.032l0.417,0.029l0.417,0.027l0.417,0.025l0.417,0.022l0.417,0.02l0.417,0.018l0.417,0.015l0.417,0.013l0.417,0.011l0.417,0.008l0.417,0.006l0.418,0.004l0.416,0.002l0.417,-0.001l0.417,-0.003l0.417,-0.005l0.416,-0.007l0.417,-0.01l0.416,-0.012l0.416,-0.014l0.416,-0.017l0.416,-0.018l0.416,-0.021l0.415,-0.023l0.416,-0.025l0.415,-0.028l0.414,-0.029l0.415,-0.032l0.414,-0.034l0.414,-0.036l0.413,-0.038l0.414,-0.04l0.413,-0.043l0.412,-0.044l0.412,-0.047l0.412,-0.048l0.412,-0.051l0.411,-0.053l0.411,-0.055l0.41,-0.057l0.409,-0.059l0.41,-0.061l0.409,-0.064l0.408,-0.065l0.408,-0.067l0.407,-0.069l0.407,-0.071l0.406,-0.074l0.405,-0.075l0.405,-0.077l0.405,-0.079l0.403,-0.082l0.404,-0.083l0.402,-0.085l0.402,-0.087l0.401,-0.089l0.4,-0.09l0.4,-0.093l0.399,-0.095l0.398,-0.096l0.398,-0.098l0.397,-0.101l0.395,-0.102l0.395,-0.104l0.395,-0.105l0.393,-0.108l0.393,-0.109l0.391,-0.112l0.391,-0.113l0.39,-0.114l0.389,-0.117l0.388,-0.118l0.387,-0.12l0.386,-0.122l0.385,-0.124l0.384,-0.125l0.383,-0.127l0.382,-0.128l0.381,-0.131l0.38,-0.132l0.379,-0.133l0.378,-0.136l0.377,-0.137l0.375,-0.138l0.374,-0.14l0.374,-0.142l0.372,-0.144l0.371,-0.145l0.369,-0.146l0.369,-0.148l0.367,-0.15l0.365,-0.151l0.365,-0.153l0.363,-0.154l0.362,-0.156l0.361,-0.157l0.359,-0.159l0.358,-0.16l0.357,-0.161l0.355,-0.163l0.354,-0.165l0.352,-0.166l0.351,-0.167l0.349,-0.169l0.348,-0.169l0.347,-0.172l0.345,-0.173l0.343,-0.174l0.342,-0.175l0.083,-0.043l-0.751,-0.827l-1.655,-1.818l-1.696,-1.863l-3.464,-3.802l-3.467,-3.8l-3.359,-3.681l-3.142,-3.442l-2.817,-3.083l-4.217,-4.614l-1.6,-1.75l20.664,-18.895l1.602,1.752Z" style="fill:#000;"/></svg>